<svg width="34" height="30" viewBox="0 0 34 30" fill="none" xmlns="http://www.w3.org/2000/svg">
<path d="M14.4851 27.4376C14.6797 26.9367 14.7724 26.4021 14.758 25.865C14.7876 24.3764 15.1855 22.9184 15.916 21.621C16.6447 20.3258 17.6838 19.2321 18.94 18.438C19.4051 18.1885 19.8147 17.8473 20.1442 17.4349C20.4736 17.0225 20.716 16.5476 20.8566 16.0389C20.9972 15.5301 21.0331 14.9982 20.9622 14.4751C20.8912 13.9521 20.715 13.4489 20.444 12.996C20.082 12.391 19.561 11.895 18.94 11.565C18.584 11.318 18.242 11.052 17.916 10.767L17.099 9.967C15.6019 8.3932 14.7624 6.30708 14.752 4.135C14.7674 3.59777 14.6751 3.06288 14.4805 2.56188C14.286 2.06089 13.993 1.60395 13.619 1.218C13.2466 0.832488 12.8004 0.52595 12.3069 0.316684C11.8135 0.107418 11.2829 -0.000286365 10.747 5.71818e-07C10.2113 0.000756001 9.6812 0.108938 9.18806 0.318146C8.69493 0.527354 8.24876 0.833339 7.87596 1.218C7.50258 1.60462 7.21006 2.06183 7.01552 2.56287C6.82097 3.06391 6.72831 3.59872 6.74296 4.136C6.75169 4.83344 6.94379 5.5163 7.29996 6.116C7.65489 6.71469 8.16165 7.20902 8.76896 7.549C11.228 9.105 12.939 12.08 12.939 15.006C12.9329 17.1592 12.1094 19.2298 10.635 20.799L8.77495 22.451C8.16796 22.79 7.66096 23.284 7.30496 23.884C6.94796 24.483 6.75696 25.167 6.74796 25.865C6.73266 26.4022 6.82502 26.9371 7.01961 27.438C7.21419 27.939 7.50705 28.396 7.88095 28.782C8.25339 29.1674 8.69963 29.4739 9.19305 29.6832C9.68648 29.8924 10.217 30.0002 10.753 30C11.2888 29.9994 11.8191 29.8913 12.3124 29.682C12.8057 29.4728 13.252 29.1668 13.625 28.782C13.9982 28.3955 14.2906 27.9384 14.4851 27.4376Z" fill="#8DA2FB"/>
<path d="M19.917 6.36C19.476 5.698 19.241 4.919 19.241 4.123C19.2416 3.05673 19.664 2.034 20.416 1.278C21.0698 0.62024 21.9321 0.210504 22.855 0.119089C23.7779 0.0276751 24.7038 0.260281 25.474 0.777001C26.1336 1.2199 26.6472 1.84836 26.95 2.583C27.2527 3.31848 27.3317 4.12692 27.1771 4.9071C27.0226 5.68728 26.6413 6.40452 26.081 6.969C25.5224 7.53193 24.8087 7.91563 24.031 8.07112C23.2534 8.22661 22.4471 8.14685 21.715 7.842C20.9821 7.53685 20.3564 7.02107 19.917 6.36Z" fill="#8DA2FB"/>
<path d="M21.022 22.518C21.681 22.076 22.456 21.84 23.248 21.84V21.838C23.7744 21.8386 24.2956 21.9432 24.7816 22.1457C25.2676 22.3482 25.7088 22.6446 26.08 23.018C26.7359 23.6779 27.1439 24.544 27.235 25.47C27.3261 26.3959 27.0947 27.3249 26.58 28.1C26.1405 28.762 25.5144 29.2785 24.781 29.584C24.0488 29.8888 23.2425 29.9686 22.4649 29.8131C21.6872 29.6576 20.9735 29.2739 20.415 28.711C19.8545 28.1464 19.473 27.429 19.3184 26.6486C19.1639 25.8683 19.243 25.0596 19.546 24.324C19.8487 23.5894 20.3623 22.9609 21.022 22.518Z" fill="#8DA2FB"/>
<path d="M32.825 12.758C33.2648 13.4198 33.4998 14.1974 33.5 14.9931C33.4993 16.0597 33.0769 17.0827 32.325 17.839C31.9537 18.2122 31.5124 18.5086 31.0265 18.7111C30.5405 18.9136 30.0194 19.0182 29.493 19.019C28.7001 19.019 27.9252 18.783 27.267 18.341C26.6073 17.8981 26.0937 17.2696 25.791 16.535C25.488 15.7994 25.4089 14.9907 25.5634 14.2104C25.718 13.43 26.0995 12.7126 26.66 12.148C27.2186 11.5849 27.9325 11.2011 28.7103 11.0456C29.4882 10.8901 30.2947 10.9699 31.027 11.275C31.7599 11.5804 32.3857 12.0966 32.825 12.758Z" fill="#8DA2FB"/>
<path d="M2.28099 11.647C2.93999 11.205 3.71399 10.969 4.50699 10.969C5.03334 10.9701 5.5543 11.075 6.04007 11.2776C6.52585 11.4803 6.9669 11.7767 7.33799 12.15C7.99361 12.8097 8.40141 13.6754 8.49251 14.601C8.58361 15.5265 8.35242 16.4552 7.838 17.23C7.39866 17.8914 6.7729 18.4075 6.03999 18.713C5.30763 19.0164 4.50166 19.0953 3.72434 18.9399C2.94702 18.7845 2.23339 18.4017 1.67399 17.84C1.1137 17.2755 0.732385 16.5583 0.577808 15.7781C0.423231 14.9979 0.502258 14.1895 0.804995 13.454C1.10759 12.719 1.62121 12.0902 2.28099 11.647Z" fill="#8DA2FB"/>
</svg>
